<svg width="18" height="18" viewBox="0 0 18 18" fill="none" xmlns="http://www.w3.org/2000/svg">
<rect width="18" height="18" fill="white"/>
<g clip-path="url(#clip0)">
<path d="M17.25 2.4C17.25 1.96239 17.0762 1.54271 16.7667 1.23327C16.4573 0.923839 16.0376 0.75 15.6 0.75L2.4 0.75C1.96239 0.75 1.54271 0.923839 1.23327 1.23327C0.923839 1.54271 0.75 1.96239 0.75 2.4L0.75 12.3C0.75 12.7376 0.923839 13.1573 1.23327 13.4667C1.54271 13.7762 1.96239 13.95 2.4 13.95H13.95L17.25 17.25V2.4ZM13.95 10.65H4.05V9H13.95V10.65ZM13.95 8.175H4.05V6.525H13.95V8.175ZM13.95 5.7H4.05V4.05H13.95V5.7Z" fill="#616161"/>
<rect x="0.75" y="12" width="16.5" height="2.25" fill="#616161"/>
<rect x="0.75" y="0.75" width="16.5" height="2.25" fill="#616161"/>
</g>
<defs>
<clipPath id="clip0">
<rect width="16.5" height="16.5" fill="white" transform="translate(0.75 0.75)"/>
</clipPath>
</defs>
</svg>
