<svg width="18" height="18" viewBox="0 0 18 18" fill="none" xmlns="http://www.w3.org/2000/svg">
<path d="M13.6299 7.81347L11.1299 5.22651C10.9935 5.0854 10.8117 4.99133 10.5844 4.99133H6.62986C6.26622 5.03837 5.90259 5.41465 5.90259 5.83797V12.47C5.90259 12.8933 6.22077 13.2226 6.62986 13.2226H13.0844C13.4935 13.2226 13.8117 12.8933 13.8117 12.47V8.37789C13.8571 8.14272 13.7662 7.95457 13.6299 7.81347ZM10.9935 6.26129L12.539 7.95457H10.9935V6.26129V6.26129ZM12.7662 12.2348H6.9935C6.94804 12.2348 6.90259 12.2348 6.90259 12.1407V6.16722C6.90259 6.07315 6.94804 6.02612 6.9935 6.02612H10.2662V8.09568C10.2662 8.09568 10.2662 8.47197 10.4026 8.61307C10.539 8.75418 10.9026 8.75418 10.9026 8.75418H12.8571V12.1407C12.8571 12.1407 12.8117 12.2348 12.7662 12.2348Z" fill="#F5F5F5"/>
<g clip-path="url(#clip0)">
<path d="M16.9999 17.2609L13.8571 14.0087H2.85707C2.4403 14.0087 2.04061 13.8374 1.74591 13.5324C1.45121 13.2275 1.28564 12.8139 1.28564 12.3826L1.28564 2.62609C1.28564 2.19482 1.45121 1.78122 1.74591 1.47627C2.04061 1.17132 2.4403 1 2.85707 1H15.4285C15.8453 1 16.245 1.17132 16.5397 1.47627C16.8344 1.78122 16.9999 2.19482 16.9999 2.62609V17.2609ZM5.27707 6.50159V7.58565H8.61898V11.0546H9.6666V7.58565H13.019V6.50159H9.6666V3.03261H8.61898V6.50159H5.27707Z" fill="#616161"/>
<rect x="1.28564" y="12.0869" width="15.7143" height="2.21739" fill="#616161"/>
<rect x="1.28564" y="1" width="15.7143" height="2.21739" fill="#616161"/>
</g>
<defs>
<clipPath id="clip0">
<rect width="15.7143" height="16.2609" fill="white" transform="translate(1.28564 1)"/>
</clipPath>
</defs>
</svg>
